<svg width="27" height="23" viewBox="0 0 27 23" fill="none" xmlns="http://www.w3.org/2000/svg">
<path d="M25.954 1.43388C25.6369 1.2555 25.2794 1.17199 24.9203 1.19242C24.5612 1.21285 24.2143 1.33643 23.9173 1.54975L19.3485 4.79408V3.62091C19.3485 2.66058 18.9861 1.73959 18.3409 1.06054C17.6957 0.381487 16.8206 0 15.9082 0H3.44035C2.52791 0 1.65285 0.381487 1.00766 1.06054C0.362465 1.73959 0 2.66058 0 3.62091V19.3791C0 20.3394 0.362465 21.2604 1.00766 21.9395C1.65285 22.6185 2.52791 23 3.44035 23H15.9082C16.8206 23 17.6957 22.6185 18.3409 21.9395C18.9861 21.2604 19.3485 20.3394 19.3485 19.3791V18.2059L23.9173 21.4503C24.2496 21.6761 24.6365 21.7968 25.032 21.7979C25.2912 21.801 25.5485 21.7495 25.7885 21.6465C26.0286 21.5435 26.2467 21.3911 26.4301 21.1981C26.6134 21.0052 26.7582 20.7756 26.8561 20.523C26.9539 20.2703 27.0028 19.9995 26.9999 19.7267V3.2733C27 2.89578 26.9028 2.52529 26.7187 2.20135C26.5345 1.8774 26.2702 1.61215 25.954 1.43388ZM17.9724 19.3791C17.9724 19.9553 17.7549 20.5079 17.3678 20.9153C16.9807 21.3227 16.4556 21.5516 15.9082 21.5516H3.44035C2.89289 21.5516 2.36785 21.3227 1.98073 20.9153C1.59362 20.5079 1.37614 19.9553 1.37614 19.3791V3.62091C1.37614 3.04471 1.59362 2.49212 1.98073 2.08469C2.36785 1.67726 2.89289 1.44836 3.44035 1.44836H15.9082C16.4556 1.44836 16.9807 1.67726 17.3678 2.08469C17.7549 2.49212 17.9724 3.04471 17.9724 3.62091V19.3791ZM25.6237 19.7267C25.6251 19.8404 25.5962 19.9522 25.5403 20.0495C25.4843 20.1468 25.4036 20.2256 25.3072 20.2771C25.2116 20.333 25.103 20.3599 24.9937 20.3548C24.8844 20.3497 24.7785 20.3127 24.688 20.2481L19.3485 16.4534V6.5466L24.688 2.75189C24.7785 2.68727 24.8844 2.65035 24.9937 2.64523C25.103 2.64012 25.2116 2.66701 25.3072 2.72292C25.4036 2.77436 25.4843 2.85319 25.5403 2.95047C25.5962 3.04775 25.6251 3.15959 25.6237 3.2733V19.7267Z" fill="#B4931F"/>
</svg>
