<svg width="31" height="31" viewBox="0 0 31 31" fill="none" xmlns="http://www.w3.org/2000/svg">
<path d="M15.5 0C12.4344 0 9.43763 0.909059 6.88867 2.61222C4.33971 4.31538 2.35303 6.73615 1.17987 9.56841C0.00671566 12.4007 -0.300236 15.5172 0.297835 18.5239C0.895906 21.5306 2.37214 24.2924 4.53985 26.4602C6.70756 28.6279 9.4694 30.1041 12.4761 30.7022C15.4828 31.3002 18.5993 30.9933 21.4316 29.8201C24.2639 28.647 26.6846 26.6603 28.3878 24.1113C30.0909 21.5624 31 18.5656 31 15.5C30.9955 11.3905 29.361 7.45066 26.4552 4.54483C23.5493 1.63899 19.6095 0.00451297 15.5 0ZM15.5 29.5445C14.5189 28.6006 11.935 25.761 10.6532 21.08H20.3469C19.065 25.761 16.4812 28.6006 15.5 29.5445ZM10.3571 19.84C9.77423 16.976 9.77423 14.024 10.3571 11.16H20.6429C21.2258 14.024 21.2258 16.976 20.6429 19.84H10.3571ZM15.5 1.45545C16.4812 2.3994 19.065 5.239 20.3469 9.92H10.6532C11.935 5.239 14.5189 2.3994 15.5 1.45545ZM21.9186 11.16H29.0842C29.9851 13.9832 29.9851 17.0168 29.0842 19.84H21.9186C22.4536 16.9714 22.4536 14.0286 21.9186 11.16ZM28.6223 9.92H21.6473C20.8649 6.73042 19.3113 3.78175 17.1229 1.333C19.6264 1.62386 22.0085 2.57128 24.0279 4.07926C26.0474 5.58724 27.6324 7.6022 28.6223 9.92ZM13.8787 1.333C11.6903 3.78175 10.1366 6.73042 9.35426 9.92H2.37926C3.36919 7.6022 4.95417 5.58724 6.97361 4.07926C8.99305 2.57128 11.3752 1.62386 13.8787 1.333ZM1.91581 11.16H9.08145C8.54638 14.0286 8.54638 16.9714 9.08145 19.84H1.91581C1.01486 17.0168 1.01486 13.9832 1.91581 11.16ZM2.38081 21.08H9.35581C10.1382 24.2696 11.6918 27.2182 13.8803 29.667C11.3762 29.3766 8.9934 28.4295 6.97338 26.9215C4.95335 25.4135 3.3679 23.3982 2.37771 21.08H2.38081ZM17.1244 29.667C19.3117 27.2179 20.8643 24.2693 21.6458 21.08H28.6208C27.6308 23.3978 26.0458 25.4128 24.0264 26.9207C22.007 28.4287 19.6248 29.3761 17.1213 29.667H17.1244Z" fill="#B4931F"/>
</svg>
