<svg width="25" height="31" viewBox="0 0 25 31" fill="none" xmlns="http://www.w3.org/2000/svg">
<path d="M12.625 0.801123L12.9404 0.064745C12.8407 0.0220272 12.7334 0 12.625 0C12.5166 0 12.4093 0.0220272 12.3096 0.064745L12.625 0.801123ZM12.625 29.6159L12.228 30.3107C12.3489 30.3798 12.4858 30.4161 12.625 30.4161C12.7643 30.4161 12.9011 30.3798 13.022 30.3107L12.625 29.6159ZM12.308 0.064745L2.07398 4.451L2.70471 5.92376L12.9404 1.5375L12.308 0.064745ZM0.618835 6.66013V17.6386H2.21966V6.66013H0.618835ZM5.86153 26.6736L12.228 30.3107L13.022 28.9212L6.65554 25.2825L5.86153 26.6736ZM13.022 30.3107L19.3885 26.6736L18.5945 25.2825L12.228 28.9212L13.022 30.3107ZM24.6312 17.6386V6.66013H23.0304V17.6418L24.6312 17.6386ZM23.1744 4.4526L12.9404 0.064745L12.3096 1.5375L22.5453 5.92376L23.1744 4.4526ZM24.6312 6.66013C24.6308 6.19024 24.4926 5.72917 24.2337 5.33706C23.9747 4.94495 23.6064 4.63743 23.1744 4.4526L22.5453 5.92376C22.6894 5.98552 22.8121 6.08822 22.8984 6.21913C22.9846 6.35004 23.0305 6.50338 23.0304 6.66013H24.6312ZM19.3885 26.6736C20.9812 25.7634 22.3051 24.4483 23.2258 22.8617C24.1465 21.275 24.6313 19.473 24.6312 17.6386H23.0304C23.0303 19.1906 22.62 20.7151 21.841 22.0574C21.062 23.3998 19.942 24.5124 18.5945 25.2825L19.3885 26.6736ZM0.618835 17.6386C0.618701 19.473 1.10356 21.275 2.02426 22.8617C2.94496 24.4483 4.26877 25.7634 5.86153 26.6736L6.65554 25.2825C5.30803 24.5124 4.18803 23.3998 3.40903 22.0574C2.63003 20.7151 2.21972 19.1906 2.21966 17.6386H0.618835ZM2.07558 4.4526C1.64356 4.63743 1.27527 4.94495 1.01632 5.33706C0.757382 5.72917 0.619178 6.19024 0.618835 6.66013H2.21966C2.21966 6.33997 2.41176 6.05182 2.70471 5.92376L2.07558 4.4526Z" fill="#B4931F"/>
<path d="M17.4274 12.0068L11.0242 18.4101L7.82251 15.2085" stroke="#B4931F" stroke-width="2.08333" stroke-linecap="round" stroke-linejoin="round"/>
</svg>
