<svg width="17" height="19" viewBox="0 0 17 19" fill="none" xmlns="http://www.w3.org/2000/svg">
<path d="M17 7.79035C15.3288 7.79332 13.6988 7.2828 12.3402 6.33085V12.9669C12.3398 14.1961 11.9557 15.3958 11.2392 16.4057C10.5227 17.4155 9.50808 18.1873 8.33099 18.6178C7.1539 19.0483 5.87048 19.1169 4.65242 18.8146C3.43435 18.5122 2.33971 17.8533 1.51491 16.9259C0.690122 15.9985 0.174505 14.8469 0.0370344 13.6251C-0.100437 12.4032 0.146793 11.1695 0.745653 10.0889C1.34451 9.00821 2.26645 8.13219 3.38814 7.57798C4.50983 7.02376 5.7778 6.81777 7.02243 6.98756V10.3246C6.45379 10.1494 5.84311 10.1544 5.27756 10.3389C4.71201 10.5234 4.2205 10.8779 3.87321 11.3519C3.52592 11.8259 3.3406 12.3951 3.34371 12.9782C3.34682 13.5613 3.53819 14.1286 3.89051 14.599C4.24284 15.0694 4.73809 15.4189 5.30558 15.5976C5.87306 15.7763 6.48377 15.7751 7.05051 15.5941C7.61724 15.4132 8.11104 15.0617 8.46139 14.5899C8.81175 14.118 9.00076 13.55 9.00143 12.9669V0H12.3402C12.3386 0.277096 12.3629 0.551816 12.4131 0.824162C12.5293 1.43007 12.7705 2.00645 13.122 2.51813C13.4735 3.0298 13.928 3.46603 14.4576 3.80017C15.2116 4.28707 16.0967 4.54714 17 4.54595V7.79035Z" fill="#008073"/>
</svg>
