<svg width="14" height="16" viewBox="0 0 14 16" fill="none" xmlns="http://www.w3.org/2000/svg">
<path d="M13.9211 15.6542C13.8663 15.7587 13.7857 15.846 13.6878 15.9068C13.5898 15.9676 13.4781 15.9998 13.3643 16H9.54598C9.43888 16 9.33352 15.9716 9.23966 15.9176C9.1458 15.8635 9.06647 15.7855 9.00904 15.6908L5.78817 10.3883L1.10761 15.7817C0.993507 15.9101 0.835695 15.9862 0.668384 15.9935C0.501074 16.0008 0.337751 15.9388 0.213824 15.8208C0.0898973 15.7028 0.0153558 15.5384 0.00635998 15.3632C-0.00263584 15.1881 0.0546394 15.0162 0.165768 14.885L5.0794 9.21833L0.0997436 1.025C0.0384139 0.924203 0.00408176 0.807986 0.000341982 0.688517C-0.00339779 0.569049 0.0235924 0.450725 0.0784864 0.345935C0.13338 0.241145 0.214159 0.153744 0.312364 0.0928832C0.410568 0.0320228 0.522586 -5.80529e-05 0.636688 7.88624e-08H4.45496C4.56206 3.47752e-05 4.66742 0.0283876 4.76128 0.0824316C4.85515 0.136476 4.93447 0.214462 4.9919 0.309167L8.21277 5.61167L12.8933 0.218333C13.0074 0.0899323 13.1652 0.0138196 13.3326 0.00649651C13.4999 -0.000826533 13.6632 0.0612305 13.7871 0.179213C13.911 0.297196 13.9856 0.461595 13.9946 0.636768C14.0036 0.811942 13.9463 0.98377 13.8352 1.115L8.92154 6.7775L13.9012 14.9758C13.9622 15.0767 13.9962 15.1928 13.9997 15.3122C14.0032 15.4315 13.976 15.5496 13.9211 15.6542Z" fill="#008073"/>
</svg>
